<svg width="96" height="96" viewBox="0 0 96 96" fill="none" xmlns="http://www.w3.org/2000/svg">
  <rect x="6" y="6" width="84" height="84" rx="18" fill="#241B15"/>
  <rect x="16" y="16" width="64" height="64" rx="12" fill="#F8DF74"/>
  <path d="M31 56V40h8v-8h18v8h8v16h-8v8H39v-8h-8Z" fill="#241B15"/>
  <path d="M40 45h6v6h-6v-6ZM51 45h6v6h-6v-6Z" fill="#A7E8BD"/>
  <path d="M35 68h8v6h-8v-6ZM53 68h8v6h-8v-6Z" fill="#241B15"/>
  <path d="M26 34h8v8h-8v-8ZM62 34h8v8h-8v-8Z" fill="#8BE6FF"/>
</svg>
